<?xml version="1.0" standalone="no"?>
<!DOCTYPE svg PUBLIC "-//W3C//DTD SVG 20010904//EN"
 "http://www.w3.org/TR/2001/REC-SVG-20010904/DTD/svg10.dtd">
<svg version="1.0" xmlns="http://www.w3.org/2000/svg"
 width="127.000000pt" height="127.000000pt" viewBox="0 0 127.000000 127.000000"
 preserveAspectRatio="xMidYMid meet">
<metadata>
Created by potrace 1.14, written by Peter Selinger 2001-2017
</metadata>
<g transform="translate(0.000000,127.000000) scale(0.100000,-0.100000)"
fill="#000000" stroke="none">
<path d="M0 630 l0 -630 635 0 635 0 0 630 0 630 -635 0 -635 0 0 -630z m380
510 c19 -7 45 -22 58 -33 53 -49 49 -161 -8 -196 l-30 -18 35 -16 c19 -9 41
-30 50 -47 l16 -31 41 37 c22 20 66 48 97 63 49 23 68 26 161 26 93 0 112 -3
162 -27 177 -83 267 -294 213 -501 -21 -80 -49 -132 -101 -184 -147 -147 -400
-148 -546 -2 -86 86 -124 197 -116 337 l5 80 -31 -9 c-17 -5 -104 -9 -193 -9
-133 0 -163 3 -163 14 0 8 12 17 27 21 53 13 53 13 53 230 0 112 -3 210 -6
219 -3 8 -21 18 -40 22 -32 6 -43 21 -26 38 11 12 302 0 342 -14z"/>
<path d="M200 1009 l0 -91 65 4 c50 3 70 9 90 28 36 33 34 82 -4 121 -26 26
-36 29 -90 29 l-61 0 0 -91z"/>
<path d="M202 768 l3 -103 45 -3 c113 -8 177 57 139 142 -15 32 -58 52 -132
61 l-58 7 3 -104z"/>
<path d="M731 856 c-53 -19 -107 -71 -138 -133 -27 -56 -28 -64 -28 -208 0
-144 1 -152 28 -207 49 -99 120 -143 223 -136 157 10 232 138 222 378 -4 98
-9 123 -32 172 -56 117 -169 173 -275 134z"/>
</g>
</svg>
