<?xml version="1.0" encoding="UTF-8"?>
<svg id="Layer_2" data-name="Layer 2" xmlns="http://www.w3.org/2000/svg" viewBox="0 0 1165.73 642.54">
  <defs>
    <style>
      .cls-1 {
        fill: #ef3763;
      }

      .cls-1, .cls-2, .cls-3, .cls-4, .cls-5 {
        stroke-width: 0px;
      }

      .cls-2 {
        fill: #730a0f;
      }

      .cls-3 {
        fill: #e31f45;
      }

      .cls-4 {
        fill: #000;
      }

      .cls-5, .cls-6 {
        fill: #c2243f;
      }

      .cls-7 {
        font-size: 144.93px;
      }

      .cls-8 {
        font-size: 205.81px;
      }

      .cls-6 {
        font-family: CorsarioVF-Regular, 'Corsario VF';
        font-variation-settings: 'wght' 900, 'opsz' 48;
      }
    </style>
  </defs>
  <g id="Layer_1-2" data-name="Layer 1">
    <g>
      <path class="cls-2" d="M330.92,510.31c-2.18-4.4-6.86-1.62-9.48.22-4.52,3.17-9.32,4.73-14.61,5.38-.26.69-.52,1.38-.78,2.08-.3-.7-.59-1.4-.88-2.1-1.26-.16-2.52-.33-3.79-.49-.15,2.28-1.61,3.24-3.65,3.15-7.73-.34-14.84,2.95-22.34,3.75-32.3,3.45-64.72,4.16-97.18,3.62-2.65-.04-5.32-1.06-7.9-1.87-9.86-3.06-19.74-6.05-29.51-9.38-9.3-3.18-18.75-6.05-27.41-10.85-12.28-1.69-22.64-7.9-33.05-14.01-.69-.66-1.38-1.31-2.08-1.97-.46-.01-.9-.11-1.32-.29-4.92-1.04-9.62-2.48-12.71-6.9-6.23-1.23-10.47-5.5-14.73-9.71-3.43-3.4-7.06-10.68-11.87-5.83-4.97,5.01,1.85,9.45,5.72,12.97,2.43,2.21,5.37,3.87,8.09,5.75,3.62,2.51,8.14,3.78,10.62,7.83,12.24,4.1,24.48,8.21,36.72,12.32,2.65-.15,5.04.65,7.29,1.98,2.95.17,5.47,1.23,7.41,3.52,7.22.42,12.76,4.97,18.95,7.87,10.6,4.96,20.97,10.4,32.09,14.17.77.48,1.54.96,2.3,1.44,2.23.25,4.46.5,6.68.75,11.5,2,23.06,1.34,34.61.83,1.89-.44,3.78-.88,5.67-1.32.94-1.38,2.25-1.66,3.78-1.23,2.38-.23,4.76-.45,7.15-.68,1.36-1.49,3.21-1.41,5-1.72,24.01-4.11,48.45.46,72.45-3.71,7.68-2.9,15.35-5.78,23.02-8.69,3.25-1.24,7.74-2.79,5.72-6.86Z"/>
      <g>
        <path class="cls-3" d="M177.39,494.73s.04.05.05.08c0,0,0,0,0,0,0,0-.06-.08-.06-.08Z"/>
        <path class="cls-3" d="M122.46,500.88c6.49,1.43,13.16,2.97,19.1,5.83,17.61,8.48,35.72,11.03,54.74,6.47,6.86-1.64,13.78-2.04,20.77-1.79,13.15.47,26.06-.15,37.93-9.18-7.63-4.84-16.3-6.44-24.69-7.03-11.73-.82-23.52-.83-35.27,2.31-5.51,1.47-12.83,4.9-17.59-2.68-11.04.08-18.4-8.04-27.48-12.33-.57-.23-1.16-.36-1.77-.39-2.5.07-5.01.13-7.51.2,2.69,5.85,10.63,3.46,13.74,8.85,1.42,2.46,5.67,4,3.88,7.36-1.71,3.22-4.98.28-7.28-.19-8.25-1.67-16.37-3.58-24.91-3.51-6.87.06-13.92-.63-8.71-10.87.33-.66-1.33-2.33-2.07-3.53-4.85-.71-9.93,1.23-14.61-1.33-1.49-.35-2.94-.57-3.8,1.16-5.16,3.82-11.06,1.41-16.61,1.84-4.25.33-5.6,1.59-3.38,5.49.42.18.86.27,1.32.29.69.66,1.39,1.31,2.08,1.97,10.4,6.11,20.77,12.32,33.05,14.01,1.56-5.38,5.95-3.62,9.06-2.94Z"/>
        <path class="cls-3" d="M256.47,533.32c-1.69-4.17-7.76-.89-11.67-2-6.75-1.91-13.42,4.96-20.08-.03-2.38.23-4.76.45-7.15.68-.67,2.22-1.5,3.93-3.78,1.23-1.89.44-3.78.88-5.67,1.32-11.63,3.44-23.21,4.95-34.61-.84-2.23-.25-4.46-.49-6.68-.74-.77-.48-1.54-.96-2.3-1.44-11.12-3.77-21.5-9.21-32.09-14.17-6.18-2.9-11.73-7.45-18.95-7.87-2.91-.23-6.65,1.26-7.41-3.52-2.25-1.33-4.64-2.13-7.29-1.98-9.07,3.68-12.14,10.25-7.39,17.06,3.44,4.93,7.23,9.88,11.79,13.72,26.4,22.26,57.56,31.9,91.59,33.09,6.87.24,13.85-.81,20.7-1.81,14.31-2.1,27.58-6.18,36.77-18.78,3.23-4.43,6.02-9.48,4.22-13.92ZM167.82,545.43c-1.08,5.66-5.74,6.37-10.61,6.14-.91-.04-1.82,0-2.73,0-14.99-1.16-27.73-7.09-38.11-18.02-3.31-3.49-4.71-7.67-1.28-11.3,3.1-3.29,7-1.81,10.73.43,10.82,6.48,21.62,12.97,34.19,15.92,3.07.72,8.93.91,7.81,6.83Z"/>
      </g>
      <g>
        <path class="cls-5" d="M229.73,529.57c-1.79.31-3.65.23-5,1.72,6.66,4.99,13.33-1.88,20.08.03,3.9,1.11,9.98-2.17,11.67,2,1.8,4.44-.99,9.5-4.22,13.92-9.19,12.6-22.46,16.69-36.77,18.78-6.85,1-13.82,2.05-20.7,1.81-34.02-1.19-65.19-10.83-91.59-33.09-4.56-3.84-8.34-8.79-11.79-13.72-4.75-6.8-1.68-13.37,7.39-17.06-12.24-4.11-24.48-8.21-36.72-12.32,20.93,51.18,56.96,80.74,113.58,87.95,54.18,6.9,93.79-13.64,126.52-53.75-24,4.17-48.44-.4-72.45,3.71Z"/>
        <path class="cls-5" d="M115.34,480.4c8.45.63,16.9,1.26,25.35,1.89,2.5-.07,5-.13,7.51-.2-15.46-6.68-31.45-5.01-47.47-3.02,4.68,2.56,9.76.62,14.61,1.33Z"/>
        <path class="cls-5" d="M76.95,487.55c-2.22-3.9-.87-5.16,3.38-5.49,5.54-.43,11.44,1.98,16.61-1.84-10.9.14-21.79.29-32.69.43,3.09,4.41,7.79,5.86,12.71,6.9Z"/>
        <path class="cls-5" d="M177.45,494.81c4.76,7.57,12.08,4.15,17.59,2.68,11.75-3.14,23.54-3.13,35.27-2.31,8.39.59,17.06,2.19,24.69,7.03-11.87,9.03-24.78,9.65-37.93,9.18-7-.25-13.92.15-20.77,1.79-19.02,4.56-37.13,2-54.74-6.47-5.94-2.86-12.61-4.39-19.1-5.83-3.11-.69-7.51-2.44-9.06,2.94,8.67,4.8,18.11,7.68,27.41,10.85,9.76,3.34,19.65,6.32,29.51,9.38,2.59.8,5.26,1.82,7.9,1.87,32.45.54,64.88-.17,97.18-3.62,7.49-.8,14.61-4.09,22.34-3.75,2.04.09,3.49-.88,3.65-3.15-15.61-3.96-30.28-10.49-45.19-16.38-21.23-8.38-43.05-9.85-65.03-3.77-5.03,1.39-9.25,1.93-13.76-.52.01.02.03.04.04.06-7.77-7.18-17.16-10.76-27.46-12.31,9.08,4.29,16.44,12.42,27.48,12.33Z"/>
        <path class="cls-5" d="M305.16,515.88c.29.7.59,1.4.88,2.1.26-.69.52-1.38.78-2.08-.55-.48-1.1-.48-1.67-.02Z"/>
        <path class="cls-5" d="M173.52,533.69c11.4,5.79,22.98,4.27,34.61.84-11.56.51-23.12,1.16-34.61-.84Z"/>
        <path class="cls-5" d="M106.08,505.96c.76,4.78,4.49,3.28,7.41,3.52-1.94-2.29-4.46-3.35-7.41-3.52Z"/>
        <path class="cls-5" d="M213.8,533.2c2.27,2.7,3.11.99,3.78-1.23-1.53-.43-2.84-.15-3.78,1.23Z"/>
      </g>
      <g>
        <path class="cls-1" d="M117.41,483.93c-5.21,10.24,1.84,10.93,8.71,10.87,8.54-.08,16.66,1.84,24.91,3.51,2.3.46,5.57,3.4,7.28.19,1.79-3.35-2.47-4.9-3.88-7.36-3.11-5.39-11.05-3-13.74-8.85-8.45-.63-16.9-1.26-25.35-1.89.74,1.2,2.4,2.88,2.07,3.53Z"/>
        <path class="cls-1" d="M160.01,538.6c-12.58-2.95-23.37-9.44-34.19-15.92-3.72-2.23-7.63-3.71-10.73-.43-3.43,3.63-2.03,7.81,1.28,11.3,10.38,10.93,23.11,16.86,38.11,18.02.91,0,1.82-.04,2.73,0,4.87.23,9.53-.48,10.61-6.14,1.13-5.92-4.74-6.11-7.81-6.83Z"/>
      </g>
    </g>
    <g>
      <g>
        <path class="cls-3" d="M486.82,78.17c1.07-.18,2.38-.42,3.09.41,1.32,1.54,3.21,1.92,4.8,2.87-.27-2.05-.94-3.81-3.24-4.33-5.95-1.33-11.87-2.79-17.86-3.94-7.91-1.52-15.95-2.41-23.77-4.26-9.4-2.22-18.62-5.24-27.95-7.8-13.84-3.8-27.5-8.37-41.89-9.85-1.78-.18-3.29-1.09-4.86-1.83-7.55-3.59-15.15-7.08-22.47-11.14-1.62-.9-3.34-1.37-5.31-1.09-4.51.65-9.05,1.24-13.59,1.58-6.38.47-12.71,1.05-18.97-1.56-2.51-1.05-5.4-1.96-8.34-1.76,1.49,2.11,4.12,2.17,6.26,3.59-6.73.67-13.35,1.27-19.95,2.01-6.85.76-13.67,1.98-20.54,2.4-6.96.43-13.59,2.41-20.35,3.68-7.61,1.43-15.32,2.65-22.71,5.21-4.13,1.43-8.57.97-12.85,1.12-7.04.24-14.14-.02-20.76-2.91-8.49-3.71-17.69-4.76-26.49-7.31-2.59-.75-5.24-1.43-7.92-1.73-8.64-.99-17.14-2.88-25.81-3.67-5.53-.5-10.51-3.18-15.19-5.96-5.36-3.19-11.43-4.97-16.53-8.62-.56-.4-1.66-.24-1.38-1.38.21-.83,1.02-.63,1.64-.69,2.32-.2,4.5-.74,7-.12,1.61.4,3.61-1.68,5.71-2.21,2.84-.72,5.59-1.62,8.55-1.15,6.26,1,12.15-.19,17.75-3,1.94-.97,4.29-.57,5.92-1.18,4.45-1.66,9.19.1,13.78-2.55,2.85-1.64,6.8-4,11.14-2.72,1.31.39,3.17-.61,4.63-1.28,3.53-1.62,7.08-3.06,11.03-3.15.5-.01.73.12.94-.7.3-1.16,1.79-1.88,2.82-1.4,1.92.9,3.85.52,5.73.46,3.16-.11,5.88,1.27,8.56,2.43,4.34,1.88,8.98,2.73,13.34,4.75,4.73,2.2,9.27,6.01,15.17,4.9.4-.08.78-.29,1.17-.44-10.61-3.54-20.94-7.78-31.27-12.06-5.56-2.3-11.37-2.52-17.16-.13-2.6,1.07-5.42,1.62-8.14,2.39-26.86,7.57-54.33,12.02-81.91,15.89-2.31.32-4.27-.17-6.23-1.25-13.73-7.6-28.46-12.38-43.71-15.83-4.09-.93-6.85.2-9.53,3.08-5.9,6.34-9.69,13.93-12.77,21.84-5.63,14.49-12.82,28.02-23.01,39.86-2.37,2.76-3.24,6.21-3.33,9.72-.37,14.12.7,28.18,5.86,41.4,3.81,9.76,7.29,19.53,9.5,29.76.39,1.8.77,3.67,1.58,5.3,5.02,10.25,8.13,21.32,13.7,31.33.79,1.41,1.41,2.95,1.9,4.49,4.2,13.37,9.18,26.29,20.24,35.8.97.83,1.56,2.1,2.43,3.06,6.19,6.8,10.71,15.15,18.63,20.37,1.23.81,1.16,1.69.76,3.05-1.88,6.5-3.3,13.09-3.09,19.93.22,7.09-.12,14.17-.75,21.21-2.99,33.44-8.22,66.6-12.49,99.87-.55,4.27-2.33,8.8-.52,12.86,4.98,11.19,13.28,19.81,23.21,26.67,10.22,7.06,22.26,10.3,33.85,14.21,13.49,4.55,27.29,8.19,41.37,10.62,11.37,1.96,22.63,4.56,34.02,6.37,17.56,2.79,35.35,3.22,53.04,4.64,6.06.49,12.15-.07,18.16-1.13-.82-1.68-2.43-2.38-4-2.09-3.09.57-4.92-.26-5.95-3.37-.26-.77-.44-1.58-1.41-1.4-.95.18-.95.93-.83,1.79.56,4.1-3.09,1.19-4.32,2.53-.92,1-1.77.14-2.34-.75-2.75-4.33-2.74-4.31-7.35-2.35-1.77.75-3.85,1.06-5.13-.49-1.34-1.62-.79-3.45.94-4.84,1.05-.84,1.24-2.11.71-3.27-.64-1.39-1.92-1.02-3.14-.85-1.25.17-3.12.46-2.72-1.58.88-4.53-2.89-4.4-5.27-5.54-.94-.45-2.69-.85-3.09.66-.34,1.3,1.24,1.47,2.24,1.81.45.15.76.38.59,1.09-2.39.23-3.9,1.1-4.19,4.08-.3,3.08-1.99,3.47-4.51,1.44-1.07-.86-1.77-2.78-2.84-2.95-3.82-.6-3.18-3.03-2.88-5.55.33-2.81,1.52-5.9-2.27-7.56-.69-.3-.94-1.3-.2-1.94.66-.58,1.54-.98,2.37-.3.57.47.99,1.12,1.47,1.69.54.64,1.22.96,2.02.69,1.09-.37.85-1.39.95-2.21.11-.93-.39-1.41-1.29-1.54-.86-.12-1.76-.12-2.58-.38-1.36-.42-2.78-.97-2.75-2.76.02-1.06-.12-2.35,1.08-2.89,1.95-.88,1.91,1.27,2.74,2.04,1.36,1.25,2.76,1.55,4.48.99.79-.26,1.59-.58,1.55-1.42-.09-1.68-1.19-2.74-2.69-3.35-1.46-.59-2.97-1.33-2.75-3.13.39-3.15-1.03-4.76-4.17-5.18,3.32-3.25-.49-5.64-.04-9.01-.91,1.01-1.29,1.54-1.78,1.94-.75.62-1.65.7-2.38.04-.58-.51-.92-1.27-.59-2.06.35-.83,1.02-1.78,1.94-1.32,2.34,1.16,4.04-.29,5.99-1.02,3.48-1.3,4.28-4.61,1.49-7.01-1.24-1.06-1.86-2.6-.41-3.11,3.78-1.33.68-2.35-.24-3.47,1.86-.57,3.36-1.11,4.74-2.06,1.64-1.13,3.42-1.47,4.86.53.56.78,1.3,1.08,2.28.67,2.74-1.15,3.5-6.66,1.5-8.84-2.34-2.54-5.15-.89-7.7-1.32-2.46-.42-4.56-.4-5.72,2.73-.69,1.86-3.04,2-4.85.98-1.08-.61-1.9-1.9-.8-3.01,1.81-1.83,3.98-3.28,4.68-6,.15-.59,1.08-.64,1.75-.37,1.6.65,2.93,1.64,4.09-1.03,1.2-2.75-.51-3.18-2.11-4.05-.69-.38-1.46-.92-1.29-1.73.49-2.42-1.1-3.2-2.81-4.08-1.25-.64-2.39-1.52-3.57-2.29-.75-.49-1.54-1.04-1.18-2.07.34-.96,1.27-.71,1.98-.57,1.46.29,2.55-.06,3.26-1.44.76-1.48,2.12-1.42,3.42-1.11,4.05.98,8.48-.65,12.33,1.92.7.47,2.19.78,2.69-.79.4-1.25-.06-2.24-1.24-2.63-1.39-.47-2-1.51-2.62-2.69-1.38-2.62-3.22-4.7-5.93-6.22-2.1-1.18-2.83-3.47-1.53-5.94.31-.59,1.18-1.11.5-1.97-.83-.17-1.19.42-1.58.93-.77,1.02-1.89,1.47-2.78.56-.82-.85-.57-2.09.49-2.82,2.35-1.61,2.05-4.1,1.57-6.19-.52-2.22-2.73-2.06-4.65-1.81-1.99.26-2.03-1.43-2.19-2.57-.15-1.05-.42-3.01,1.13-2.9,3.01.22,4.65-1.27,6.09-3.48.44-.67,1.12-.51,1.75-.21.5.24,1.06.48,1.33-.25.24-.64-.18-.99-.74-1.21-2.3-.89-1.83-2.53-1.16-4.25.62-1.6,1.74-2.93,1.97-4.78.42-3.37,2.38-4.61,5.68-3.7,1.6.44,2.1-.08,1.95-1.47-.26-2.33-.63-4.64-3.91-4.44-.83.05-1.73-.23-2.52-.56-2.08-.86-3.98-.85-5.57.92-.7.78-1.29.58-1.96.05-4.57-3.61-10.17-2.67-15.29-2.93-4.97-.25-9.78-.36-14.31-2.57-.89-.44-1.74-.87-2.74-.94-4.53-.28-9-.8-13.39-2.07-1.4-.4-3.21-1.07-4.42-.07-1.26,1.04-2.21.62-3.49.48-6.52-.67-12.79-3.47-19.53-2.28-2.54.45-5.37.59-7.54,1.49-2.68,1.11-2.92.45-2.89-1.67.03-2.34-1.45-3.44-3.29-3.86-2.13-.48-4.78.41-5.36-2.95-.09-.54-1.16-.22-1.78-.3-2.31-.31-5.18-.09-6.5-2.11-1.28-1.95-2.58-1.78-4.34-1.69-3.15.17-6.29-.06-9.3-1.16-1.1-.4-2.42-.53-2.05-2.3.35-1.65,1.54-1.1,2.57-1.16,2.8-.18,3.08-1.15,1.7-3.68-2.29-4.2-5.88-7.41-9.3-10.32-5.07-4.32-7.02-10.51-10.99-15.42-1.03-1.27-3.19-2.73-2.99-5.02.12-1.44-.21-2.33-1.81-2.41-.69-.04-1.46-.42-1.47-1.08-.08-3.69-3.53-5.24-5.05-8.05-1.82-3.37-4.38-6.33-6.49-9.55-.66-1-.93-2.58.14-3.31,1.43-.98,2.08.69,2.7,1.55,3.77,5.26,7.87,10.27,11.9,15.31,4.89,6.12,8.86,12.86,13.58,19.09,2.29,3.02,5.24,5.49,7.12,8.73,1.38,2.38,3.24,4.02,5.41,5.48.99.66,2.07,1.21,2.49,2.47.16.49.52,1.03,1.2.83.65-.19.54-.85.67-1.35.68-2.64-1.05-3.67-3.01-4.64-.71-.35-1.8-.73-1.28-1.89.41-.91,1.33-.4,2.05-.47,2.22-.23,3.42,1.81,5.21,2.34,8.41,2.5,14.99,8.2,22.44,12.38,1.46.82,2.23,3.27,4.72,2.34-.52-2.71-1.44-5.09-3.87-6.73-.89-.6-1.27-1.72-1.66-2.76-1.22-3.25-1.05-6.73-2.5-10.14-1.1-2.58-1.79-5.87-3.32-8.36-2.62-4.26-5.87-8.16-8.21-12.61-1.61-3.07-4.07-5.78-5.1-8.95-1.24-3.81-3.8-7.24-3.76-11.47,0-.22-.31-.54-.56-.66-4.68-2.35-4.41-7.55-5.36-11.34-1.23-4.88-1.49-10.23-2.12-15.43l-.42,3.76c-.54-1.43-1.6-3.38-2.49-3.09-2.34.77-2.57-.28-3.19-1.98-.2-.56-1.73-.73-1.36-2.05.39-1.36,1.6-1.28,2.62-1.54,1.53-.39,2.99-.08,4.48.37,3.85,1.17,7.06,4.04,10.78,4.98,5.49,1.38,7.49,5.96,9.05,9.79,1.86,4.57,4.55,8.58,6.75,12.87,4.72,9.21,7.65,18.61,7.48,29.08-.15,9.73.64,19.49,5.51,28.22,1.55,2.78,1.75,6.68,5.48,8.03h0c.13.51.2,1.05.39,1.54.27.7.63,1.37.94,2.06.83,1.77,1.94,2.21,1.9,1.13-.07-1.73-.94-3.27-2.31-4.42-.23-.19-.6-.21-.91-.31-2.34-3.48-2.44-7.77-4.17-11.58-2-4.38-1.15-9.79-1.81-14.74-.68-5.12-1.13-10.43-1.2-15.72-.06-4.28.41-8.58-.09-12.84-.44-3.73,1.59-7.46-.14-11.16-.26-.56.09-1.02.43-1.47,1.48-1.98,1.28-4.31,1.18-6.56-.12-2.72.78-4.46,3.18-5.23.92-.29.58-.91.74-1.49.99-3.57,2.85-6.81,4.18-10.18,1.23-3.12,4.08-4.81,5.12-7.97.5-1.51.94-4.28,1.83-4.49,3.38-.83,2.34-3.07,2.19-5.04-.11-1.47-.15-2.79,1.41-3.53.76-.36,1.54-.33,2.12.26,1.11,1.12.56,2.44.27,3.69-.54,2.29-.97,4.49,1.92,5.64,1.17.47,1.69,1.45,1.08,2.64-.9,1.76-.07,2.39,1.52,2.64,2.1.33,2.2,1.51,1.69,3.33-.88,3.19-1.45,6.86-1.06,9.74.49,3.62-1.2,7.41.8,10.85.18.31-.13,1.34-.4,1.42-3.12.96-2.18,2.84-1.22,4.8.45.93.41,1.99-.07,2.85-.79,1.41-.29,2.59.54,3.61,2.71,3.29,1.66,7.29.93,10.52-.51,2.3-.67,4.49-.67,6.73,0,1.31.36,2.72-.4,3.8-1.42,2-1.45,4.27-1.76,6.53-.56,4.2-.42,8.46-.85,12.64-.76,7.27-1.4,14.44.96,21.54.44,1.33-.25,3.67,1.75,3.56,1.15-.07.69-2.42.9-3.74.72-4.56.13-9.52,3.76-13.19,2.96-2.99,3.57-6.58,3.12-10.51-.19-1.62.34-2.57,1.54-3.86,2.02-2.18,5.62-3.58,4.79-7.74-.61-3.07.29-5.9,2.21-8.44,1.05-1.4-.85-6.68-2.59-7.04-1.58-.33-1.38-1.42-1.58-2.41-.95-4.68.65-9,1.91-13.35,1.37-4.7.02-9.48-2.28-12.9-1.9-2.83-2.41-5.2-2.39-8.17,0-.97-.05-1.94,0-2.91.15-3.56-1.96-6.67-2.31-9.96-.87-8.13-1.84-16.19-4.32-24-.16-.5.26-.72.51-1.06.75-1.05.31-9.63-.51-10.59-.2-.23-.5-.42-.79-.53-2.54-.96-.65-1.81.06-2.69,1.95-3.39-.29-6.82-.02-10.32.47-6.28-.37-12.67-.93-18.99-.12-1.36,1.47-2.83-.05-3.95-1.59-1.18-.81-3.26-.46-3.74,1.82-2.49,1.13-5.08,1.3-7.76.53-8.66,1.42-17.3,2.78-25.88.2-1.27.38-1.92,2.03-1.42,2.68.81,5.48,1.26,8.24,1.77,3.13.58,4.43,2.46,3.68,5.57-.16.65-.36,1.31.12,1.87,1.72,1.98,1.39,4.55,2.05,6.65.81,2.57,3.03,4.95,4.26,7.8.49,1.15,1.71,2.54,2.13,4.11.27,1.05.1,2.35,1.63,2.89.16-.58.3-.99.38-1.4.19-.95.14-2.12,1.62-1.91,1.24.18,1.02,1.15,1.02,2.03,0,.64-.12,1.5.23,1.88,2.64,2.82,2.09,6.57,2.64,9.88.32,1.96,1.04,4.06.88,5.9-.19,2.2-.86,4.14,1.04,5.88.25.23.37.93.21,1.21-1.59,2.69-.6,4.85.98,7.18.8,1.18.76,2.9.5,4.45-.18,1.06-.48,2.27-.16,3.23,2.62,7.79.84,15.88,1.65,23.79.47,4.6.08,9.29.23,13.93.24,7.22,1.26,14.49.79,21.66-.92,13.89,1.76,27.55,1.75,41.34,0,9.12,2.43,17.9,3,26.9.28,4.46,1.71,8.67,2.02,13.07.11,1.55.08,3.42,1.12,4.15,1.21.84,2.55-.73,4.44-1.36-5-1.59-2.83-5.78-3.69-8.53-1.03-3.29-1.64-7.1-1.42-10.83.29-4.86-2.63-9.42-1.46-14.43.16-.71-.27-1.98-.84-2.36-3.52-2.32-1.94-5.88-.37-7.26,3.22-2.83,1.74-6.97,3.93-9.9.72-.97.14-2.26-1.46-1.99-2.3.39-1.71-.72-1.23-1.99.37-.99.43-2.13,1.66-2.58,1.04.48.03,2.73,2.02,2.32,1.83-.38,2.5-1.87,2.52-3.36.02-1.39-.36-2.84.03-4.2,1.58-5.43.82-11.3,3.6-16.59.93-1.77,1.38-3.7,3.07-5.04,1.01-.8,1.93-1.76,2.75-2.76,1.6-1.95.96-3.77-1.41-4.18-4.67-.8-8.49-5.25-7.49-10.1.8-3.88-1.05-6.89-2.43-9.63-1.5-2.97-.08-5.4-1.09-8.03,1.33,0,1.35.69,1.68,1.08.61.73,1.22,1.92,2.3,1.13.94-.7.82-1.96.23-2.98-.43-.75-1.16-1.35-1.49-2.13-.74-1.75-2.53-3.37-1.53-5.43.74-1.52.37-2.71-.17-4.03-.43-1.04-.48-1.96-.06-3.11,1.06-2.88,1.65-6.3-.88-8.33-3.37-2.72.05-4.5.49-6.42.35-1.49,2.87-2.32,4.76-1.59,1.79.69,2.35.2,3.12-1.47,1.03-2.22,2.57-4.53,4.18-6.06,1.6-1.52,3.61-2.47,3.92-5.04,1.63.9-.21,2.75,1.69,3.55.37-1.97.92-3.82.99-5.68.05-1.36.46-2.59,1.48-3.03,1.37-.58,1.95-1.14,1.98-2.7.01-.8.85-1.9,1.61-2.32,4.09-2.27,3.92-6.26,3.51-9.82-.39-3.41.38-6.59.96-9.73.72-3.84,2.57-7.41,3.46-11.34.69-3.05,1.3-6.92,4.84-8.77,1.06-.55,1.16-1.69,1.51-2.74,1.21-3.59,3.4-4.35,6.49-2.16,1.81,1.28,3.6,2.29,5.72,3.09,2.28.86,5.3-.4,7,2.62.59,1.05.99,1.99,1.23,3.11.21.99.61,2,1.9,1.79,1.51-.24.56-1.37.57-2.09.02-.75-.4-1.55-.25-2.24.29-1.28-1.05-3.5.44-3.65,1.77-.19,1.17,2.26,1.23,3.4.11,2.07.71,2.81,2.89,2.25-.72-2.13-1.9-4.68,2.3-3.55.44.12,1.01-.36,1.54-.46,2.02-.39,4.26.09,5.01,1.76.71,1.58,1.55,1.8,2.86,1.96,1.4.17,2.78.27,4.11.92,1.54.74,2.74.27,3.98-1.1,1-1.1,1.01-3.12,2.85-3.57.9,1.81-.68,3.71.58,5.53,1.43-1.44-.19-5.72,4.02-3.94.51.22.97-.69,1.15-1.37.3-1.15.76-2.26,1-3.42.24-1.14.71-1.56,1.77-.92,2.67,1.59,6.25,1.22,8.4,3.94.36.46,1.34.66,1.42.35.76-3.02,3.8-1.84,5.26-2.97,3.2-2.48,6.9-1.99,10.35-2.86,1.02-.26,2.31-.4,2.04-1.52-.57-2.36,1.17-3.04,2.45-4.07,1.29-1.04,2.5-2,2.66-3.88.09-1.07.9-1.97,1.79-2.65,1.53-1.16,2.5-2.55,2.97-4.5.33-1.34,1.71-3.72,2.5-3.22,2.21,1.39,4.49,3.35,5.6,5.64,1.15,2.36,3.19,4.45,5.85,3.75,1.21-.32,2.5-.75,3.01.82.63,1.92,2.17,1.73,3.64,2.08,2.26.54,4.53-.18,6.89,1.13,3.78,2.1,6.29,7.12,11.8,5.61.23-.06.62.21.85.42,5.08,4.7,11.27,8.07,15.99,13.2.67.73,1.19,1.87,2.74,1.09-5.38-7.32-13.7-11.35-19.81-18.85,8.33,2.55,16.38,2.86,23.81,6.15,3.39,1.5,7.45,1.39,11.01,2.6,5.3,1.8,10.56,3.36,16.22,3.73,2.96.2,6.36,1.1,8.54,2.61,2.13,1.48,4.56,2.09,6.22,1.92,6.67-.65,12.06,3.11,18.06,4.56,5.54,1.34,10.8,3.46,16.64,2.47ZM315.4,38.84c-.09,0-.17-.07-.26-.11.04-.07.08-.21.11-.21.09,0,.17.07.26.11-.04.07-.08.21-.11.21Z"/>
        <path class="cls-3" d="M377.17,274.24c-4.49.16-5.1,4.14-6.48,7.02-1.8,3.76-3.17,7.46-7.32,9.62-1.62.85-3.08,2.99-3.29,5.62-.35,4.41-.39,8.91-1.97,13.17-.36.97-.52,2.11.88,2.76,1.57.73,1.52,2.32.82,3.36-2.12,3.15-1.5,7.17-3.68,10.32-1.23,1.78-.3,3.34,1.85,3.85,1.51.36,3.51-.06,3.43,2.47-.07,2.09-.44,3.86-3.02,4.29-1.38.23-1.97,1.04-1.94,2.77.11,5.96.11,11.97-2.48,17.56-.61,1.31-.9,2.66-1.01,4.08-.71,8.84-2.79,17.53-2.96,26.43-.03,1.5.2,3.09-.2,4.49-1.51,5.4-1.73,10.99-2.78,16.45-.14.73-.21,1.57.02,2.25,1.13,3.42.76,6.6-1.14,9.66-.47.76-.68,1.77-.28,2.52,1.64,3.09-.69,6.76,1.55,9.78.64.86-.61,1.12-1.05,1.66-2.06,2.49-2.53,5.43-2.19,8.56.37-.21.76-.4,1.11-.64,6.62-4.59,8.28-11.71,9.27-18.97,3.45-25.23,6.36-50.55,10.19-75.72,3.09-20.33,5.96-40.61,5.48-61.23-.01-.51.13-1.15.44-1.52,2.8-3.2,4.44-7.12,6.76-10.62ZM345.1,439.98c-.04-.09-.11-.19-.1-.27.02-.08.13-.14.2-.21.04.09.07.18.11.27-.07.07-.14.14-.21.2ZM350.67,431.31c-.06-.18-.2-.36-.17-.53.03-.16.21-.29.33-.44.07.18.13.35.2.54-.12.14-.24.29-.36.43Z"/>
        <path class="cls-3" d="M296.19,461.7c.79-.68,1.67.17,2.08-.63-3.64-2.01-7.07-.9-10.51.52-2.44,1.01-4.28.52-4.87-2.35-.18-.86-.21-1.79-1.22-2.1-1.28-.39-1.35.79-1.73,1.48-.57,1.05-1.58,1.38-2.55,1.87-.9.45-2.62-.02-2.59,1.4.03,1.5,1.66.96,2.62,1.19.87.2,1.67.44,2.23,1.18-2.34,1.34-4.56.76-6.93-.09-5.99-2.15-8.51-1.34-10.59,3.06,12.55.22,24.96-1.24,37.31-3.28-.15-1.85-1.92-1.76-3.26-2.25Z"/>
        <path class="cls-3" d="M484.5,172.18c-.62,1.22-1.9,1.73-3.18,2.05-1.78.44-2.95,1.44-3.81,3.13-3.05,5.93-5.78,12.02-9.01,17.87-1.59,2.87-3.48,5.94-3.85,9.45,8.64-10.11,16.7-20.62,22.62-32.62-.93-.28-1.83-1.71-2.76.12Z"/>
        <path class="cls-3" d="M496.71,89.48c-.58.22-.83.59-.7,1.24.74,3.88,1.79,7.82-2.48,10.55-.28.18-.42.79-.39,1.18.59,6.9,1.22,13.8,1.88,20.69.02.2.5.35.77.53,4.01-11.3,4.16-22.7.93-34.2Z"/>
        <path class="cls-3" d="M289.28,32.2c3.46,1.24,7.58.12,10.62,3.33.58.62,3.72,2.02,5.33-.39-.48-1.25-1.71-1.15-2.69-1.39-6.13-1.55-12.27-3.04-18.41-4.55.78,2.63,3.21,2.3,5.16,3Z"/>
        <path class="cls-3" d="M253.48,20.74c2.86,1.35,5.82,2.87,9.17,1.5-7.99-2.93-16.04-5.67-24.22-8.05,1.71,1.79,3.93,3.12,6.19,3.41,3.27.42,5.99,1.79,8.86,3.14Z"/>
        <path class="cls-3" d="M272.2,26.61c-.02,1.19-1.74.69-1.33,1.68.34.81,1.31.68,1.96.21,1.32-.97,2.18-.59,3.32.5,2.13,2.04,4.47,1.18,6.69-.08-4.77-1.9-9.63-3.52-14.57-4.89,0,2.75,2.91,1.52,3.94,2.57Z"/>
        <path class="cls-3" d="M496.01,86.2c-.12-1.16-.14-2.35-.87-3.36-2.48,1.84.05,2.38.87,3.36Z"/>
        <path class="cls-3" d="M430.92,246.78c1.09-.5,1.91-1.31,2.58-2.29-2.78-1.4-2.45.71-2.58,2.29Z"/>
        <path class="cls-3" d="M428.09,249.1c-.99-.2-1.45.25-1.49,1.23.69-.17,1.2-.55,1.51-1.2.9-.39,1.69-.91,2.15-1.82-1.35-.15-2.12.4-2.17,1.79Z"/>
        <path class="cls-3" d="M264,23.94c.68.11.92-.37,1.1-.9-.63-.19-1.27-.38-1.9-.57-.03.65-.07,1.33.8,1.47Z"/>
        <path class="cls-3" d="M462.16,208.06c.54-.22.78-.66.82-1.22-.84.02-1.65.07-.82,1.22Z"/>
        <path class="cls-3" d="M488.75,166.98c-.14.39.23.95.39,1.44-1.36.61-2.78,1.19-1.53,3.1.8-.89,1.31-1.93,1.55-3.1.53-.3.62-.81.62-1.36-.36-.08-.83-.66-1.03-.09Z"/>
        <path class="cls-3" d="M241.3,454.89c.05,1.65.67,3.26,2.54,3.72,1.25.31,2.08-.32,2.36-2.01-.4-1.16-.31-2.99-2.55-3.2-1.19-.11-2.4.07-2.35,1.49Z"/>
        <path class="cls-3" d="M232.72,379.49c-2-.55-3.99-1.14-6-1.63-.86-.21-1.79-.24-1.98.98-.19,1.2.66,1.52,1.57,1.53,2.11.01,4.23-.08,6.34-.13.02-.25.05-.5.07-.74Z"/>
        <path class="cls-3" d="M306.57,70.01c-.13.67-.56,1.09-.94,1.61-.91,1.28.44,2.59,1.7,1.63,1.81-1.38.36-2.97.27-4.52-1.02.16-.95.8-1.04,1.28Z"/>
        <path class="cls-3" d="M362.43,51.56c-.93-.04-1.85.24-1.7,1.39.12.9.27,2.11,1.5,2.2,1.1.08,1.31-.9,1.3-.85.3-1.93.07-2.7-1.09-2.74Z"/>
        <path class="cls-3" d="M227.85,439.7c1.02.04,1.21-.68,1.31-1.48.09-.85-.1-1.5-1.09-1.62-.98-.12-1.34.45-1.45,1.3-.13.97.05,1.75,1.23,1.79Z"/>
        <path class="cls-3" d="M276.07,73.64c-1.05.08-.93,1.02-.99,1.72-.07.77.09,1.5,1.23,1.78.71-.5.65-1.38.71-2.18.05-.68-.07-1.38-.95-1.32Z"/>
        <path class="cls-3" d="M224.42,345.93c-.08.8.01,1.59.88,1.83.81.22,1.08-.57,1.33-1.12.41-.88-.1-1.45-.9-1.7-.8-.24-1.18.24-1.31.99Z"/>
        <path class="cls-3" d="M228.69,429.2c-1-.72-1.82-.99-3.05-.06,1.2.79,2.07,1.01,3.05.06Z"/>
        <path class="cls-3" d="M222.15,401.62c-.04.42-.08.92.49.99.57.07.62-.44.7-.85.02-.42.07-.92-.49-.99-.57-.07-.65.43-.69.85Z"/>
        <path class="cls-3" d="M215.8,152.74c-.01.36.12.95.36,1.06.56.27.63-.33.78-.7.07-.43.09-.92-.38-1.09-.59-.22-.75.34-.77.73Z"/>
        <path class="cls-3" d="M380.15,269.39c-.8-.23-.82.34-.86.89-.02.3-.14.62.46.76.2-.27.47-.57.68-.92.2-.33.09-.63-.27-.74Z"/>
        <path class="cls-3" d="M309.62,65c.01-.24-.2-.49-.38-.88-.29.29-.59.46-.63.67-.05.25.05.71.22.78.47.21.77-.13.79-.57Z"/>
        <path class="cls-3" d="M220.77,381.24c.03.2.41.35.7.59.23-.23.58-.41.57-.59,0-.2-.29-.52-.5-.58-.41-.1-.85.05-.78.58Z"/>
        <path class="cls-3" d="M325.1,64.28c.38.16.85.13.88-.43.02-.26-.18-.53-.29-.82-.54.32-.78.46-1.01.6.14.23.22.57.42.66Z"/>
        <path class="cls-3" d="M486.64,166.14c-.06-.24-.14-.52-.21-.81-.15.23-.38.45-.41.69-.03.22.17.48.27.72.1-.17.21-.34.36-.59Z"/>
        <path class="cls-3" d="M215.44,336.01c-.1.17-.3.37-.27.51.04.14.31.21.48.3.1-.17.3-.37.27-.5-.04-.14-.31-.21-.48-.31Z"/>
        <path class="cls-3" d="M213.91,365.69c.05.19.05.47.17.54.12.07.37-.07.56-.12-.05-.19-.05-.47-.17-.55-.12-.07-.37.07-.56.12Z"/>
        <path class="cls-3" d="M226.25,402.23c.17.1.37.3.5.27.14-.04.21-.31.31-.48-.17-.1-.37-.3-.5-.27-.14.04-.21.31-.3.48Z"/>
        <path class="cls-3" d="M216.38,419.59c.17.1.37.3.51.26.13-.04.2-.31.3-.48-.17-.1-.34-.19-.51-.29-.1.17-.2.34-.29.51Z"/>
        <polygon class="cls-3" points="165.35 140.81 165.09 140.63 165.21 140.92 165.35 140.81"/>
        <path class="cls-3" d="M147.02,14.75s.07-.14.11-.22c-.09-.04-.18-.11-.27-.12-.03,0-.07.14-.11.22.09.04.18.11.27.12Z"/>
      </g>
      <g>
        <path class="cls-4" d="M489.16,168.41s-.02,0-.03.01c0,0,0,.01,0,.02,0,0,.02-.03.02-.03Z"/>
        <path class="cls-4" d="M496.52,142.14c-.82-6.13-.86-12.3-.74-18.47-.27-.18-.75-.33-.77-.53-.66-6.89-1.28-13.79-1.88-20.69-.03-.39.11-1.01.39-1.18,4.27-2.73,3.22-6.67,2.48-10.55-.12-.65.13-1.02.7-1.24,0-1.14-.15-2.25-.7-3.28-.82-.98-3.35-1.52-.87-3.36-.14-.46-.28-.92-.43-1.39-1.59-.96-3.48-1.33-4.8-2.87-.71-.83-2.02-.59-3.09-.41-5.84.99-11.1-1.14-16.64-2.47-6-1.45-11.39-5.21-18.06-4.56-1.66.16-4.09-.45-6.22-1.92-2.18-1.52-5.58-2.42-8.54-2.61-5.65-.38-10.91-1.93-16.22-3.73-3.56-1.21-7.62-1.1-11.01-2.6-7.43-3.29-15.48-3.59-23.81-6.15,6.11,7.5,14.42,11.53,19.81,18.85-1.56.78-2.07-.36-2.74-1.09-4.73-5.13-10.91-8.5-15.99-13.2-.23-.21-.62-.48-.85-.42-5.51,1.51-8.02-3.51-11.8-5.61-2.35-1.31-4.63-.6-6.89-1.13-1.47-.35-3.01-.16-3.64-2.08-.51-1.57-1.8-1.14-3.01-.82-2.65.7-4.7-1.39-5.85-3.75-1.12-2.29-3.39-4.25-5.6-5.64-.79-.5-2.17,1.88-2.5,3.22-.48,1.95-1.45,3.34-2.97,4.5-.89.67-1.69,1.57-1.79,2.65-.16,1.88-1.38,2.84-2.66,3.88-1.28,1.03-3.02,1.71-2.45,4.07.27,1.12-1.02,1.27-2.04,1.52-3.44.87-7.15.38-10.35,2.86-1.46,1.13-4.5-.04-5.26,2.97-.08.31-1.06.11-1.42-.35-2.15-2.71-5.73-2.35-8.4-3.94-1.07-.64-1.54-.21-1.77.92-.24,1.16-.7,2.27-1,3.42-.18.68-.64,1.59-1.15,1.37-4.21-1.78-2.59,2.5-4.02,3.94-1.26-1.82.32-3.71-.58-5.53-1.84.45-1.85,2.47-2.85,3.57-1.24,1.37-2.44,1.84-3.98,1.1-1.33-.64-2.71-.75-4.11-.92-1.3-.15-2.15-.37-2.86-1.96-.75-1.67-2.98-2.15-5.01-1.76-.53.1-1.1.58-1.54.46-4.2-1.12-3.02,1.43-2.3,3.55-2.18.55-2.79-.18-2.89-2.25-.06-1.14.54-3.59-1.23-3.4-1.49.16-.15,2.37-.44,3.65-.16.69.26,1.49.25,2.24-.02.72.94,1.85-.57,2.09-1.28.21-1.68-.81-1.9-1.79-.24-1.12-.64-2.06-1.23-3.11-1.71-3.03-4.73-1.76-7-2.62-2.12-.8-3.91-1.81-5.72-3.09-3.09-2.19-5.28-1.43-6.49,2.16-.35,1.05-.46,2.19-1.51,2.74-3.54,1.85-4.15,5.73-4.84,8.77-.89,3.93-2.75,7.5-3.46,11.34-.58,3.13-1.35,6.31-.96,9.73.41,3.55.58,7.55-3.51,9.82-.76.42-1.6,1.52-1.61,2.32-.03,1.56-.61,2.12-1.98,2.7-1.02.43-1.43,1.67-1.48,3.03-.07,1.87-.62,3.71-.99,5.68-1.9-.79-.06-2.64-1.69-3.55-.31,2.56-2.32,3.52-3.92,5.04-1.61,1.53-3.15,3.84-4.18,6.06-.77,1.67-1.33,2.16-3.12,1.47-1.9-.73-4.42.11-4.76,1.59-.45,1.92-3.87,3.7-.49,6.42,2.52,2.03,1.94,5.45.88,8.33-.42,1.15-.37,2.07.06,3.11.54,1.31.9,2.51.17,4.03-1,2.06.79,3.68,1.53,5.43.33.78,1.06,1.39,1.49,2.13.59,1.02.72,2.28-.23,2.98-1.08.79-1.69-.4-2.3-1.13-.32-.39-.34-1.07-1.68-1.08,1.01,2.63-.41,5.05,1.09,8.03,1.38,2.74,3.22,5.74,2.43,9.63-.99,4.85,2.82,9.3,7.49,10.1,2.36.4,3.01,2.22,1.41,4.18-.82,1-1.74,1.95-2.75,2.76-1.69,1.34-2.14,3.27-3.07,5.04-2.78,5.29-2.02,11.16-3.6,16.59-.39,1.36-.01,2.81-.03,4.2-.02,1.48-.69,2.98-2.52,3.36-2,.41-.99-1.83-2.02-2.32-1.23.45-1.29,1.59-1.66,2.58-.48,1.27-1.07,2.39,1.23,1.99,1.59-.27,2.18,1.02,1.46,1.99-2.19,2.93-.71,7.06-3.93,9.9-1.57,1.38-3.15,4.94.37,7.26.57.38,1,1.65.84,2.36-1.17,5.01,1.75,9.57,1.46,14.43-.22,3.72.38,7.54,1.42,10.83.86,2.75-1.31,6.94,3.69,8.53-1.89.63-3.23,2.2-4.44,1.36-1.05-.73-1.01-2.6-1.12-4.15-.32-4.39-1.74-8.61-2.02-13.07-.57-9-3-17.77-3-26.9,0-13.79-2.68-27.45-1.75-41.34.48-7.17-.55-14.43-.79-21.66-.15-4.64.24-9.33-.23-13.93-.81-7.91.97-16-1.65-23.79-.32-.95-.02-2.16.16-3.23.26-1.56.3-3.28-.5-4.45-1.58-2.33-2.57-4.49-.98-7.18.16-.28.04-.98-.21-1.21-1.91-1.74-1.24-3.68-1.04-5.88.16-1.84-.56-3.94-.88-5.9-.54-3.31,0-7.05-2.64-9.88-.35-.37-.23-1.24-.23-1.88,0-.87.22-1.85-1.02-2.03-1.48-.21-1.43.96-1.62,1.91-.08.42-.22.82-.38,1.4-1.53-.54-1.35-1.84-1.63-2.89-.41-1.57-1.63-2.97-2.13-4.11-1.22-2.85-3.44-5.23-4.26-7.8-.66-2.1-.33-4.67-2.05-6.65-.48-.55-.28-1.22-.12-1.87.75-3.11-.54-4.99-3.68-5.57-2.77-.51-5.56-.96-8.24-1.77-1.65-.5-1.83.15-2.03,1.42-1.36,8.58-2.24,17.22-2.78,25.88-.17,2.68.52,5.28-1.3,7.76-.35.48-1.13,2.56.46,3.74,1.51,1.13-.07,2.59.05,3.95.56,6.32,1.4,12.72.93,18.99-.26,3.5,1.97,6.92.02,10.32l.26.18-.14.11-.12-.29c-.7.88-2.59,1.73-.06,2.69.29.11.59.3.79.53.82.95,1.26,9.54.51,10.59-.25.34-.66.56-.51,1.06,2.48,7.82,3.46,15.87,4.32,24,.35,3.29,2.46,6.4,2.31,9.96-.04.97.01,1.94,0,2.91-.03,2.97.49,5.34,2.39,8.17,2.3,3.42,3.64,8.2,2.28,12.9-1.27,4.35-2.87,8.68-1.91,13.35.2.99,0,2.08,1.58,2.41,1.74.36,3.64,5.64,2.59,7.04-1.91,2.55-2.82,5.37-2.21,8.44.83,4.16-2.77,5.56-4.79,7.74-1.2,1.29-1.72,2.25-1.54,3.86.45,3.93-.16,7.52-3.12,10.51-3.63,3.67-3.04,8.63-3.76,13.19-.21,1.32.24,3.68-.9,3.74-2,.12-1.3-2.23-1.75-3.56-2.37-7.1-1.72-14.27-.96-21.54.43-4.18.29-8.44.85-12.64.3-2.25.34-4.52,1.76-6.53.76-1.08.4-2.49.4-3.8,0-2.24.15-4.43.67-6.73.72-3.24,1.77-7.23-.93-10.52-.83-1.02-1.33-2.2-.54-3.61.48-.86.53-1.92.07-2.85-.96-1.96-1.91-3.84,1.22-4.8.27-.08.58-1.11.4-1.42-2-3.45-.31-7.24-.8-10.85-.39-2.88.18-6.56,1.06-9.74.5-1.82.41-3-1.69-3.33-1.59-.25-2.43-.88-1.52-2.64.61-1.2.09-2.18-1.08-2.64-2.89-1.15-2.46-3.35-1.92-5.64.29-1.25.85-2.57-.27-3.69-.58-.58-1.36-.62-2.12-.26-1.57.74-1.53,2.06-1.41,3.53.15,1.97,1.19,4.21-2.19,5.04-.88.22-1.33,2.98-1.83,4.49-1.03,3.16-3.89,4.85-5.12,7.97-1.33,3.37-3.19,6.61-4.18,10.18-.16.58.18,1.2-.74,1.49-2.41.77-3.31,2.51-3.18,5.23.1,2.25.3,4.58-1.18,6.56-.34.45-.69.91-.43,1.47,1.73,3.7-.3,7.43.14,11.16.5,4.26.03,8.56.09,12.84.07,5.29.51,10.6,1.2,15.72.66,4.95-.19,10.36,1.81,14.74,1.74,3.81,1.83,8.09,4.17,11.58.31.1.68.12.91.31,1.37,1.15,2.24,2.7,2.31,4.42.04,1.08-1.07.64-1.9-1.13-.32-.68-.67-1.35-.94-2.06-.19-.49-.26-1.02-.39-1.54-3.73-1.35-3.93-5.25-5.48-8.03-4.88-8.73-5.66-18.49-5.51-28.22.16-10.47-2.76-19.87-7.48-29.08-2.2-4.28-4.89-8.3-6.75-12.87-1.56-3.83-3.57-8.4-9.05-9.79-3.72-.94-6.93-3.81-10.78-4.98-1.48-.45-2.94-.75-4.48-.37-1.02.26-2.24.17-2.62,1.54-.38,1.33,1.15,1.49,1.36,2.05.62,1.7.85,2.75,3.19,1.98.89-.29,1.96,1.66,2.49,3.09l.42-3.76c.63,5.2.9,10.55,2.12,15.43.95,3.79.68,8.99,5.36,11.34.24.12.56.44.56.66-.04,4.23,2.52,7.66,3.76,11.47,1.03,3.16,3.49,5.88,5.1,8.95,2.33,4.44,5.58,8.35,8.21,12.61,1.54,2.49,2.22,5.79,3.32,8.36,1.46,3.41,1.28,6.89,2.5,10.14.39,1.04.78,2.16,1.66,2.76,2.43,1.63,3.35,4.01,3.87,6.73-2.49.94-3.26-1.52-4.72-2.34-7.45-4.18-14.03-9.87-22.44-12.38-1.79-.53-2.99-2.57-5.21-2.34-.71.07-1.64-.44-2.05.47-.52,1.16.57,1.54,1.28,1.89,1.96.96,3.69,1.99,3.01,4.64-.13.5-.02,1.16-.67,1.35-.68.2-1.03-.34-1.2-.83-.42-1.27-1.5-1.81-2.49-2.47-2.17-1.46-4.03-3.1-5.41-5.48-1.88-3.24-4.83-5.71-7.12-8.73-4.72-6.23-8.69-12.97-13.58-19.09-4.03-5.04-8.13-10.05-11.9-15.31-.62-.87-1.28-2.53-2.7-1.55-1.07.73-.8,2.31-.14,3.31,2.11,3.22,4.67,6.18,6.49,9.55,1.51,2.8,4.96,4.35,5.05,8.05.01.66.79,1.05,1.47,1.08,1.6.09,1.94.97,1.81,2.41-.2,2.29,1.96,3.75,2.99,5.02,3.97,4.91,5.92,11.1,10.99,15.42,3.41,2.91,7.01,6.12,9.3,10.32,1.38,2.53,1.1,3.5-1.7,3.68-1.03.06-2.22-.49-2.57,1.16-.38,1.77.94,1.9,2.05,2.3,3.01,1.1,6.15,1.33,9.3,1.16,1.76-.09,3.06-.26,4.34,1.69,1.32,2.02,4.19,1.8,6.5,2.11.62.08,1.68-.25,1.78.3.58,3.36,3.24,2.47,5.36,2.95,1.84.42,3.32,1.52,3.29,3.86-.03,2.11.21,2.78,2.89,1.67,2.16-.9,5-1.04,7.54-1.49,6.75-1.2,13.01,1.61,19.53,2.28,1.29.13,2.24.56,3.49-.48,1.21-1,3.02-.34,4.42.07,4.39,1.27,8.87,1.79,13.39,2.07,1.01.06,1.85.5,2.74.94,4.53,2.21,9.34,2.32,14.31,2.57,5.12.25,10.72-.69,15.29,2.93.67.53,1.26.73,1.96-.05,1.59-1.78,3.49-1.78,5.57-.92.79.32,1.69.61,2.52.56,3.28-.2,3.65,2.11,3.91,4.44.16,1.39-.35,1.91-1.95,1.47-3.3-.91-5.26.33-5.68,3.7-.23,1.85-1.35,3.18-1.97,4.78-.66,1.72-1.14,3.36,1.16,4.25.56.22.98.57.74,1.21-.27.74-.83.49-1.33.25-.63-.3-1.32-.46-1.75.21-1.44,2.21-3.07,3.7-6.09,3.48-1.56-.11-1.28,1.85-1.13,2.9.16,1.15.2,2.84,2.19,2.57,1.92-.26,4.13-.41,4.65,1.81.49,2.08.79,4.57-1.57,6.19-1.06.73-1.32,1.97-.49,2.82.89.92,2,.46,2.78-.56.39-.51.75-1.1,1.58-.93.68.86-.19,1.38-.5,1.97-1.3,2.47-.57,4.76,1.53,5.94,2.72,1.52,4.55,3.61,5.93,6.22.62,1.18,1.23,2.22,2.62,2.69,1.18.4,1.63,1.38,1.24,2.63-.5,1.58-2,1.26-2.69.79-3.85-2.58-8.28-.94-12.33-1.92-1.3-.31-2.66-.37-3.42,1.11-.71,1.38-1.8,1.73-3.26,1.44-.71-.14-1.64-.39-1.98.57-.36,1.03.42,1.58,1.18,2.07,1.19.77,2.32,1.65,3.57,2.29,1.71.88,3.29,1.66,2.81,4.08-.16.81.6,1.35,1.29,1.73,1.61.87,3.31,1.31,2.11,4.05-1.16,2.67-2.48,1.68-4.09,1.03-.67-.27-1.6-.21-1.75.37-.7,2.72-2.87,4.17-4.68,6-1.1,1.11-.28,2.4.8,3.01,1.8,1.02,4.16.88,4.85-.98,1.16-3.13,3.26-3.15,5.72-2.73,2.56.43,5.36-1.22,7.7,1.32,2.01,2.18,1.24,7.69-1.5,8.84-.98.41-1.72.11-2.28-.67-1.44-2.01-3.22-1.66-4.86-.53-1.38.95-2.87,1.48-4.74,2.06.93,1.12,4.03,2.14.24,3.47-1.45.51-.83,2.04.41,3.11,2.79,2.39,1.99,5.71-1.49,7.01-1.95.73-3.65,2.19-5.99,1.02-.92-.46-1.59.49-1.94,1.32-.33.79.01,1.55.59,2.06.74.65,1.63.57,2.38-.04.48-.4.86-.92,1.78-1.94-.45,3.37,3.36,5.76.04,9.01,3.14.42,4.56,2.04,4.17,5.18-.22,1.8,1.29,2.54,2.75,3.13,1.51.61,2.6,1.67,2.69,3.35.05.84-.75,1.16-1.55,1.42-1.72.56-3.12.27-4.48-.99-.83-.77-.79-2.92-2.74-2.04-1.2.54-1.06,1.83-1.08,2.89-.03,1.79,1.38,2.33,2.75,2.76.82.26,1.72.26,2.58.38.89.12,1.39.61,1.29,1.54-.1.82.14,1.85-.95,2.21-.81.27-1.49-.05-2.02-.69-.48-.57-.91-1.22-1.47-1.69-.83-.69-1.7-.28-2.37.3-.74.65-.49,1.64.2,1.94,3.79,1.66,2.6,4.75,2.27,7.56-.3,2.53-.94,4.96,2.88,5.55,1.07.17,1.77,2.08,2.84,2.95,2.52,2.03,4.21,1.64,4.51-1.44.29-2.98,1.81-3.85,4.19-4.08.17-.71-.14-.94-.59-1.09-.99-.34-2.57-.52-2.24-1.81.39-1.51,2.15-1.11,3.09-.66,2.38,1.15,6.16,1.02,5.27,5.54-.4,2.04,1.47,1.75,2.72,1.58,1.22-.17,2.5-.54,3.14.85.53,1.16.33,2.43-.71,3.27-1.73,1.39-2.28,3.22-.94,4.84,1.28,1.55,3.36,1.24,5.13.49,4.62-1.96,4.6-1.98,7.35,2.35.57.89,1.42,1.76,2.34.75,1.23-1.34,4.88,1.56,4.32-2.53-.12-.87-.12-1.62.83-1.79.98-.18,1.16.63,1.41,1.4,1.03,3.11,2.86,3.93,5.95,3.37,1.58-.29,3.18.41,4,2.09.22,0,.44,0,.66.01,2.08-4.4,4.6-5.21,10.59-3.06,2.37.85,4.59,1.43,6.93.09-.56-.74-1.36-.98-2.23-1.18-.96-.23-2.6.32-2.62-1.19-.03-1.42,1.69-.96,2.59-1.4.98-.49,1.98-.82,2.55-1.87.37-.69.45-1.86,1.73-1.48,1.02.31,1.05,1.24,1.22,2.1.59,2.88,2.43,3.36,4.87,2.35,3.44-1.42,6.87-2.53,10.51-.52-.41.8-1.29-.05-2.08.63,1.34.5,3.11.4,3.26,2.25,8.65-1.62,17.14-3.73,24.86-8.15,6.79-3.89,14.57-6.29,19.61-12.86-.34-3.13.13-6.07,2.19-8.56.44-.54,1.69-.8,1.05-1.66-2.24-3.02.1-6.69-1.55-9.78-.4-.75-.19-1.76.28-2.52,1.9-3.05,2.27-6.24,1.14-9.66-.23-.68-.16-1.52-.02-2.25,1.05-5.46,1.27-11.06,2.78-16.45.39-1.41.17-2.99.2-4.49.16-8.9,2.24-17.59,2.96-26.43.11-1.42.41-2.77,1.01-4.08,2.59-5.59,2.59-11.6,2.48-17.56-.03-1.73.56-2.54,1.94-2.77,2.58-.43,2.95-2.21,3.02-4.29.08-2.52-1.92-2.11-3.43-2.47-2.15-.52-3.08-2.07-1.85-3.85,2.18-3.15,1.56-7.17,3.68-10.32.7-1.04.76-2.64-.82-3.36-1.4-.65-1.24-1.79-.88-2.76,1.58-4.26,1.62-8.76,1.97-13.17.21-2.63,1.67-4.78,3.29-5.62,4.15-2.16,5.51-5.86,7.32-9.62,1.38-2.87,1.99-6.86,6.48-7.02,1.8-1.42,4.1-.96,6.13-1.63,5.79-1.94,11.25-4.64,16.84-7.04,9.43-4.04,18.47-8.72,26.47-15.24.04-.98.5-1.43,1.49-1.23.05-1.39.82-1.94,2.17-1.79.22-.18.44-.35.65-.53.13-1.59-.2-3.69,2.58-2.29,12.07-10.17,21.4-22.49,28.66-36.43-.83-1.15-.02-1.19.82-1.22.78-.55,1.39-1.24,1.67-2.17.37-3.51,2.26-6.58,3.85-9.45,3.24-5.85,5.96-11.94,9.01-17.87.87-1.69,2.03-2.68,3.81-3.13,1.28-.32,2.56-.83,3.18-2.05.93-1.83,1.84-.4,2.76-.12.11-.18.23-.35.34-.53-1.25-1.92.17-2.5,1.53-3.1-.15-.49-.52-1.05-.39-1.44.2-.57.67.01,1.03.09,1.99-3.25,2.89-6.97,4.51-10.38,2.2-4.65,2.91-9.47,2.24-14.55ZM216.94,153.1c-.15.38-.22.97-.78.71-.24-.12-.37-.7-.36-1.06.01-.39.17-.95.77-.73.46.17.44.65.37,1.09ZM215.66,336.82c-.17-.1-.45-.17-.48-.3-.04-.13.17-.33.27-.5.17.1.45.17.48.31.04.13-.17.33-.27.5ZM226.63,346.64c-.25.54-.52,1.34-1.33,1.12-.87-.24-.96-1.03-.89-1.83.13-.74.51-1.23,1.31-.99.81.25,1.31.81.9,1.7ZM214.08,366.24c-.12-.07-.12-.35-.17-.54.19-.05.44-.19.56-.12.12.07.12.35.17.54-.19.05-.44.19-.56.12ZM221.48,381.83c-.3-.24-.68-.39-.7-.59-.08-.53.36-.69.78-.58.22.05.5.37.5.58,0,.18-.34.37-.57.59ZM216.89,419.85c-.14.04-.33-.16-.51-.26l.29-.51c.17.1.34.19.51.29-.1.17-.17.45-.3.48ZM222.64,402.61c-.57-.07-.53-.57-.49-.99.04-.42.12-.92.69-.85.56.07.51.57.49.99-.09.41-.13.92-.7.85ZM226.31,380.37c-.91,0-1.76-.33-1.57-1.53.19-1.22,1.12-1.19,1.98-.98,2.01.5,4,1.08,6,1.63-.02.25-.05.5-.07.74-2.11.05-4.23.15-6.34.13ZM226.76,402.5c-.13.04-.33-.17-.5-.27.1-.17.17-.45.3-.48.13-.04.33.17.5.27-.1.17-.17.45-.31.48ZM225.64,429.15c1.24-.93,2.06-.66,3.05.06-.99.95-1.85.73-3.05-.06ZM227.85,439.7c-1.18-.05-1.36-.82-1.23-1.79.11-.85.47-1.42,1.45-1.3.99.12,1.18.77,1.09,1.62-.09.79-.29,1.52-1.31,1.48ZM276.31,77.14c-1.14-.28-1.3-1.01-1.23-1.78.06-.7-.06-1.65.99-1.72.88-.06.99.64.95,1.32-.06.8,0,1.68-.71,2.18ZM243.84,458.61c-1.88-.46-2.49-2.07-2.54-3.72-.04-1.42,1.17-1.6,2.35-1.49,2.24.21,2.15,2.04,2.55,3.2-.29,1.69-1.11,2.32-2.36,2.01ZM307.33,73.25c-1.26.96-2.62-.35-1.7-1.63.37-.52.81-.94.94-1.61.09-.48.02-1.12,1.04-1.28.09,1.55,1.54,3.14-.27,4.52ZM308.83,65.57c-.17-.08-.27-.54-.22-.78.04-.21.34-.38.63-.67.18.39.39.64.38.88-.02.44-.32.78-.79.57ZM325.1,64.28c-.2-.08-.28-.43-.42-.66.24-.14.47-.28,1.01-.6.11.29.31.57.29.82-.04.56-.5.6-.88.43ZM363.52,54.3c0-.06-.19.93-1.3.85-1.23-.09-1.38-1.3-1.5-2.2-.15-1.15.77-1.42,1.7-1.39,1.16.05,1.39.81,1.09,2.74ZM380.43,270.13c-.21.34-.48.65-.68.92-.6-.14-.49-.47-.46-.76.04-.55.06-1.12.86-.89.36.1.47.41.27.74ZM486.28,166.73c-.1-.24-.29-.49-.27-.72.03-.24.26-.46.41-.69.08.29.15.58.21.81-.15.25-.25.42-.36.59Z"/>
        <path class="cls-4" d="M428.13,249.11s-.02,0-.03,0c0,.01,0,.02,0,.04,0,0,.04-.03.04-.03Z"/>
        <path class="cls-4" d="M103.62,23.29c5.1,3.65,11.17,5.42,16.53,8.62,4.67,2.78,9.65,5.46,15.19,5.96,8.68.78,17.18,2.67,25.81,3.67,2.67.31,5.33.98,7.92,1.73,8.8,2.55,18,3.6,26.49,7.31,6.62,2.89,13.71,3.16,20.76,2.91,4.28-.15,8.72.31,12.85-1.12,7.39-2.56,15.09-3.78,22.71-5.21,6.76-1.27,13.39-3.25,20.35-3.68,6.87-.42,13.69-1.64,20.54-2.4,6.6-.74,13.22-1.34,19.95-2.01-2.13-1.43-4.76-1.48-6.26-3.59l-1.23-.35c-1.61,2.41-4.74,1-5.33.39-3.04-3.21-7.16-2.09-10.62-3.33-1.95-.7-4.37-.37-5.16-3-.43-.09-.86-.18-1.3-.28-2.22,1.26-4.55,2.12-6.69.08-1.14-1.09-1.99-1.47-3.32-.5-.65.47-1.62.6-1.96-.21-.41-.99,1.31-.49,1.33-1.68-1.03-1.06-3.93.18-3.94-2.57-1.05-.33-2.11-.66-3.16-1-.18.53-.42,1.01-1.1.9-.87-.14-.83-.82-.8-1.47-.11-.24-.3-.31-.55-.23-3.36,1.37-6.32-.15-9.17-1.5-2.86-1.35-5.59-2.72-8.86-3.14-2.26-.29-4.48-1.62-6.19-3.41-.43-.1-.87-.2-1.3-.31-.39.15-.77.36-1.17.44-5.9,1.1-10.44-2.7-15.17-4.9-4.36-2.03-9-2.87-13.34-4.75-2.68-1.16-5.39-2.54-8.56-2.43-1.88.07-3.8.44-5.73-.46-1.03-.48-2.52.24-2.82,1.4-.21.81-.44.68-.94.7-3.95.09-7.5,1.53-11.03,3.15-1.46.67-3.32,1.66-4.63,1.28-4.34-1.28-8.3,1.07-11.14,2.72-4.58,2.65-9.33.89-13.78,2.55-1.63.61-3.98.21-5.92,1.18-5.6,2.8-11.49,4-17.75,3-2.96-.47-5.72.43-8.55,1.15-2.1.53-4.1,2.61-5.71,2.21-2.51-.62-4.69-.07-7,.12-.62.05-1.43-.15-1.64.69-.29,1.13.81.98,1.38,1.38ZM146.87,14.41c.09,0,.18.07.27.12-.04.08-.08.22-.11.22-.09,0-.18-.07-.27-.12.04-.08.08-.22.11-.22Z"/>
        <path class="cls-4" d="M315.51,38.63c-.09-.04-.17-.11-.26-.11-.03,0-.07.14-.11.21.09.04.17.11.26.11.03,0,.07-.14.11-.21Z"/>
        <path class="cls-4" d="M350.5,430.79c-.03.16.11.35.17.53.12-.14.24-.28.36-.43-.07-.18-.14-.36-.2-.54-.12.14-.3.28-.33.44Z"/>
        <path class="cls-4" d="M345,439.71c-.02.08.06.18.1.27.07-.07.14-.14.21-.2-.04-.09-.07-.18-.11-.27-.07.07-.18.13-.2.21Z"/>
      </g>
    </g>
    <text class="cls-6" transform="translate(393.96 406.47)"><tspan class="cls-7"><tspan x="0" y="0">BELLA</tspan></tspan><tspan class="cls-8"><tspan x="0" y="172.47">ONOJIE</tspan></tspan></text>
  </g>
</svg>